<svg width="22" height="22" viewBox="0 0 22 22" fill="none" xmlns="http://www.w3.org/2000/svg">
<g id="reviews">
<mask id="mask0_24_166" style="mask-type:alpha" maskUnits="userSpaceOnUse" x="0" y="0" width="22" height="22">
<rect id="Bounding box" width="21.2228" height="21.2228" fill="#D9D9D9"/>
</mask>
<g mask="url(#mask0_24_166)">
<path id="reviews_2" d="M8.02485 12.601L10.6114 11.0314L13.1979 12.601L12.5126 9.66078L14.8117 7.67114L11.7831 7.42796L10.6114 4.64247L9.4397 7.42796L6.41104 7.67114L8.71017 9.66078L8.02485 12.601ZM1.76855 19.4542V3.53712C1.76855 3.05076 1.94173 2.63441 2.28807 2.28807C2.63441 1.94173 3.05076 1.76855 3.53712 1.76855H17.6856C18.172 1.76855 18.5883 1.94173 18.9347 2.28807C19.281 2.63441 19.4542 3.05076 19.4542 3.53712V14.1485C19.4542 14.6349 19.281 15.0512 18.9347 15.3976C18.5883 15.7439 18.172 15.9171 17.6856 15.9171H5.30568L1.76855 19.4542ZM4.55404 14.1485H17.6856V3.53712H3.53712V15.1433L4.55404 14.1485Z" fill="#FADD6B"/>
</g>
</g>
</svg>
